<svg width="64" height="64" viewBox="0 0 64 64" fill="none" xmlns="http://www.w3.org/2000/svg">
<circle cx="32" cy="32" r="32" fill="#697692" fill-opacity="0.6"/>
<g filter="url(#filter0_d_17_53)">
<path d="M50 24H14C12.8954 24 12 24.8954 12 26V41.7436C12 42.8482 12.8954 43.7436 14 43.7436H33.5975C34.0043 43.7436 34.4014 43.8676 34.7359 44.0992L43.7771 50.3585C45.3888 51.4743 47.477 49.8461 46.7878 48.0109L46.2004 46.4467C45.7093 45.1391 46.6759 43.7436 48.0727 43.7436H50C51.1046 43.7436 52 42.8482 52 41.7436V26C52 24.8954 51.1046 24 50 24Z" fill="white"/>
</g>
<defs>
<filter id="filter0_d_17_53" x="8" y="24" width="48" height="34.7238" filterUnits="userSpaceOnUse" color-interpolation-filters="sRGB">
<feFlood flood-opacity="0" result="BackgroundImageFix"/>
<feColorMatrix in="SourceAlpha" type="matrix" values="0 0 0 0 0 0 0 0 0 0 0 0 0 0 0 0 0 0 127 0" result="hardAlpha"/>
<feOffset dy="4"/>
<feGaussianBlur stdDeviation="2"/>
<feComposite in2="hardAlpha" operator="out"/>
<feColorMatrix type="matrix" values="0 0 0 0 0 0 0 0 0 0 0 0 0 0 0 0 0 0 0.25 0"/>
<feBlend mode="normal" in2="BackgroundImageFix" result="effect1_dropShadow_17_53"/>
<feBlend mode="normal" in="SourceGraphic" in2="effect1_dropShadow_17_53" result="shape"/>
</filter>
</defs>
</svg>
