<svg width="64" height="64" viewBox="0 0 64 64" fill="none" xmlns="http://www.w3.org/2000/svg">
<circle cx="32" cy="32" r="32" fill="#697692"/>
<path d="M16.0992 33.2709C18.0667 30.2039 22.5487 30.2039 24.5162 33.2709L26.8931 36.9761C29.0279 40.3039 26.6383 44.6759 22.6846 44.6759H17.9308C13.9771 44.6759 11.5875 40.3039 13.7223 36.9761L16.0992 33.2709Z" fill="#F3F1F1"/>
<circle cx="20.3077" cy="26.3797" r="3.99231" fill="#F3F1F1"/>
<path d="M40.295 32.303C42.2625 29.236 46.7445 29.236 48.712 32.303L51.0889 36.0083C53.2237 39.3361 50.8341 43.708 46.8804 43.708H42.1266C38.1729 43.708 35.7833 39.3361 37.9181 36.0083L40.295 32.303Z" fill="#EDECEC"/>
<circle cx="44.5035" cy="25.4119" r="3.99231" fill="#EDECEC"/>
<g filter="url(#filter0_d_74_2)">
<path d="M28.1971 30.8513C30.1646 27.7843 34.6466 27.7843 36.614 30.8513L41.0864 37.823C43.2212 41.1508 40.8316 45.5227 36.8779 45.5227H27.9332C23.9796 45.5227 21.59 41.1508 23.7247 37.823L28.1971 30.8513Z" fill="white"/>
<circle cx="32.4055" cy="22.7182" r="4.71818" fill="white"/>
</g>
<defs>
<filter id="filter0_d_74_2" x="18.925" y="18" width="26.961" height="35.5227" filterUnits="userSpaceOnUse" color-interpolation-filters="sRGB">
<feFlood flood-opacity="0" result="BackgroundImageFix"/>
<feColorMatrix in="SourceAlpha" type="matrix" values="0 0 0 0 0 0 0 0 0 0 0 0 0 0 0 0 0 0 127 0" result="hardAlpha"/>
<feOffset dy="4"/>
<feGaussianBlur stdDeviation="2"/>
<feComposite in2="hardAlpha" operator="out"/>
<feColorMatrix type="matrix" values="0 0 0 0 0 0 0 0 0 0 0 0 0 0 0 0 0 0 0.25 0"/>
<feBlend mode="normal" in2="BackgroundImageFix" result="effect1_dropShadow_74_2"/>
<feBlend mode="normal" in="SourceGraphic" in2="effect1_dropShadow_74_2" result="shape"/>
</filter>
</defs>
</svg>
