<svg width="64" height="64" viewBox="0 0 64 64" fill="none" xmlns="http://www.w3.org/2000/svg">
  <defs>
    <linearGradient id="backgroundGradient" x1="0%" y1="0%" x2="100%" y2="0%">
      <stop offset="0%" style="stop-color: #F39F5A" />
      <stop offset="100%" style="stop-color: #FF5733" />
    </linearGradient>

    <filter id="drop-shadow" x="-20%" y="-20%" width="140%" height="140%">
      <feDropShadow dx="3" dy="3" stdDeviation="3" flood-color="rgba(0, 0, 0, 0.3)" />
    </filter>
  </defs>

  <circle cx="32" cy="32" r="32" fill="url(#backgroundGradient)" filter="url(#drop-shadow)" />

<g filter="url(#filter0_d_17_51)">
<path d="M34.6701 18.6451C39.398 12.8268 48.2759 12.0737 53.3594 16.6029C58.9513 21.585 59.9308 30.2087 54.4958 36.3089C50.5085 40.7842 44.029 42.1897 39.9753 40.5927C38.8541 40.151 37.4357 40.3077 36.7545 41.3018L30.2042 50.8593C29.5229 51.8534 28.1238 52.0236 27.224 51.222L26.1241 50.242L24.9198 49.169C24.0577 48.4009 24.0233 47.0643 24.8448 46.2529L33.2177 37.9822C34.0392 37.1707 33.9904 35.8305 33.3639 34.8605C30.7618 30.8314 30.5743 23.6856 34.6701 18.6451Z" fill="#E7E5E5"/>
</g>
<g filter="url(#filter1_d_17_51)">
<path d="M8.11886 34.1163C3.84565 27.9563 5.59236 19.2194 11.3571 15.5967C17.6983 11.6117 26.254 13.0702 30.6013 19.9879C33.7905 25.0629 33.3377 31.6775 30.6759 35.1269C29.9397 36.0809 29.6956 37.4869 30.4609 38.4179L37.8186 47.3686C38.5839 48.2996 38.3581 49.6908 37.3378 50.332L36.0905 51.1159L34.7248 51.9741C33.7472 52.5885 32.4538 52.2497 31.9029 51.2348L26.2883 40.8913C25.7375 39.8765 24.4366 39.5506 23.3306 39.8824C18.7366 41.2608 11.8208 39.4528 8.11886 34.1163Z" fill="white"/>
</g>
<defs>
<filter id="filter0_d_17_51" x="20.2502" y="13.6729" width="41.8503" height="46.0559" filterUnits="userSpaceOnUse" color-interpolation-filters="sRGB">
<feFlood flood-opacity="0" result="BackgroundImageFix"/>
<feColorMatrix in="SourceAlpha" type="matrix" values="0 0 0 0 0 0 0 0 0 0 0 0 0 0 0 0 0 0 127 0" result="hardAlpha"/>
<feOffset dy="4"/>
<feGaussianBlur stdDeviation="2"/>
<feComposite in2="hardAlpha" operator="out"/>
<feColorMatrix type="matrix" values="0 0 0 0 0 0 0 0 0 0 0 0 0 0 0 0 0 0 0.25 0"/>
<feBlend mode="normal" in2="BackgroundImageFix" result="effect1_dropShadow_17_51"/>
<feBlend mode="normal" in="SourceGraphic" in2="effect1_dropShadow_17_51" result="shape"/>
</filter>
<filter id="filter1_d_17_51" x="1.74536" y="13.4095" width="40.5285" height="46.8716" filterUnits="userSpaceOnUse" color-interpolation-filters="sRGB">
<feFlood flood-opacity="0" result="BackgroundImageFix"/>
<feColorMatrix in="SourceAlpha" type="matrix" values="0 0 0 0 0 0 0 0 0 0 0 0 0 0 0 0 0 0 127 0" result="hardAlpha"/>
<feOffset dy="4"/>
<feGaussianBlur stdDeviation="2"/>
<feComposite in2="hardAlpha" operator="out"/>
<feColorMatrix type="matrix" values="0 0 0 0 0 0 0 0 0 0 0 0 0 0 0 0 0 0 0.25 0"/>
<feBlend mode="normal" in2="BackgroundImageFix" result="effect1_dropShadow_17_51"/>
<feBlend mode="normal" in="SourceGraphic" in2="effect1_dropShadow_17_51" result="shape"/>
</filter>
</defs>
</svg>
